<svg width="184" height="74" viewBox="0 0 184 74" fill="none" xmlns="http://www.w3.org/2000/svg">
<path fill-rule="evenodd" clip-rule="evenodd" d="M66.5338 29.5C62.5338 27 53.7338 22.1 50.5338 22.5C48.88 22.7067 45.3459 24.7938 41.3803 27.1356C35.7543 30.458 29.2598 34.2933 26.0338 34C21.6338 33.6 9.20045 23.8333 3.53376 19C0.867074 20.6667 -2.8662 25.6 3.53376 32C2.36714 38.3333 5.23377 50.9 26.0338 50.5C38.35 50.5 47.5586 46.9984 52.3827 44.2511C48.862 46.9719 44.9587 51.6449 46.5338 57C46.7731 56.5693 46.9849 56.1843 47.1753 55.8382C48.0558 54.2381 48.4801 53.4671 49.0546 52.832C49.5889 52.2413 50.2532 51.7683 51.5354 50.8553C51.692 50.7437 51.8578 50.6257 52.0338 50.5C52.0338 50.8556 51.9933 51.3326 51.9454 51.8965C51.657 55.2968 51.1006 61.8556 57.5338 64C56.5338 60.3333 55.1337 52.2 57.5338 49C59.9337 45.8 65.2004 43.6667 67.5338 43C64.0338 45.3333 57.7338 52.3 60.5338 61.5C61.7338 63.5 66.3671 65.6667 68.5338 66.5L69.0338 73C71.0338 71.8333 75.1337 68.9 75.5338 66.5C75.7927 64.9465 74.0404 63.2589 72.2211 61.5067C70.527 59.8752 68.7749 58.1876 68.5338 56.5C68.1337 53.7 70.0338 50.6667 71.0338 49.5C68.8671 52.8333 67.6337 60.3 80.0338 63.5C80.5338 66 80.0338 71 78.0338 73.5C81.2004 73.3333 87.3337 70.9 86.5338 62.5C85.9804 56.6898 81.4103 50.7231 77.3735 45.4528C74.1151 41.1986 71.2042 37.3982 71.0338 34.5C70.5338 26 86.0338 8.5 91.5338 8C97.0338 8.5 112.534 26 112.034 34.5C111.863 37.3982 108.952 41.1986 105.694 45.4528C101.657 50.7231 97.0871 56.6898 96.5338 62.5C95.7338 70.9 101.867 73.3333 105.034 73.5C103.034 71 102.534 66 103.034 63.5C115.434 60.3 114.2 52.8333 112.034 49.5C113.034 50.6667 114.934 53.7 114.534 56.5C114.293 58.1876 112.54 59.8752 110.846 61.5067C109.027 63.2589 107.275 64.9465 107.534 66.5C107.934 68.9 112.034 71.8333 114.034 73L114.534 66.5C116.7 65.6667 121.334 63.5 122.534 61.5C125.334 52.3 119.034 45.3333 115.534 43C117.867 43.6667 123.134 45.8 125.534 49C127.934 52.2 126.534 60.3333 125.534 64C131.967 61.8556 131.411 55.2968 131.122 51.8965C131.074 51.3326 131.034 50.8556 131.034 50.5C131.21 50.6257 131.376 50.7438 131.532 50.8553C132.814 51.7683 133.479 52.2414 134.013 52.832C134.587 53.467 135.012 54.2381 135.892 55.838C136.083 56.1842 136.294 56.5692 136.534 57C138.109 51.6449 134.205 46.9719 130.685 44.2511C135.509 46.9984 144.717 50.5 157.034 50.5C177.834 50.9 180.7 38.3333 179.534 32C185.934 25.6 182.2 20.6667 179.534 19C173.867 23.8333 161.434 33.6 157.034 34C153.808 34.2933 147.313 30.458 141.687 27.1356C137.722 24.7938 134.188 22.7067 132.534 22.5C129.334 22.1 120.534 27 116.534 29.5C122.934 23.5 102.534 7.33333 91.5338 0C80.5338 7.33333 60.1338 23.5 66.5338 29.5ZM3.62446 32.1565C5.44813 35.2 12.2999 40.8932 26.0338 40.5C40.0067 40.1 47.1666 36 49 34L57.5338 37L49 35C46.0225 37.5 38 41.5 26.0338 41.5C12.0698 41.5 7.63392 39.0373 3.62446 32.1565ZM179.443 32.1565C177.619 35.2 170.768 40.8932 157.034 40.5C143.061 40.1 135.901 36 134.068 34L125.534 37L134.068 35C137.045 37.5 145.068 41.5 157.034 41.5C170.998 41.5 175.434 39.0373 179.443 32.1565ZM105 26H103.834C102.882 20.3246 97.946 16 92 16C86.054 16 81.1181 20.3246 80.1659 26H78C76.8955 26 76 26.8954 76 28V31C76 32.1046 76.8955 33 78 33H81.0881C82.9841 37.131 87.157 40 92 40C96.843 40 101.016 37.131 102.912 33H105C106.105 33 107 32.1046 107 31V28C107 26.8954 106.105 26 105 26ZM92 35C95.866 35 99 31.866 99 28C99 24.134 95.866 21 92 21C88.134 21 85 24.134 85 28C85 31.866 88.134 35 92 35ZM92.9082 33.9317C95.791 33.494 98 31.005 98 28C98 24.6863 95.3137 22 92 22C88.6863 22 86 24.6863 86 28C86 31.1093 88.3651 33.6662 91.3944 33.9698L91.6708 33.728C92.3074 33.171 93.1895 32.2148 93.7621 31.1755C94.3465 30.1147 94.5286 29.1239 94.0712 28.3615C93.8073 27.9215 93.5464 27.7003 93.325 27.5945C93.1086 27.491 92.8884 27.4777 92.6608 27.5294C92.1752 27.6397 91.6893 28.0431 91.3905 28.4167L90.6096 27.792C90.9774 27.3322 91.6415 26.7355 92.4392 26.5542C92.8533 26.4601 93.3081 26.478 93.7563 26.6923C94.1995 26.9041 94.5928 27.2871 94.9288 27.8471C95.6713 29.0847 95.2702 30.5106 94.6379 31.6581C94.1589 32.5276 93.5007 33.3279 92.9082 33.9317Z" fill="#D9D9D9"/>
</svg>
