<svg width="31" height="31" viewBox="0 0 31 31" fill="none" xmlns="http://www.w3.org/2000/svg">
<path d="M16 12.4L2.5 11.9231C2.5 11.9231 -6.46256e-07 14.7846 -6.67103e-07 15.2615C-6.8795e-07 15.7385 2.5 18.6 2.5 18.6L16 18.1231L10 26.2308L9.5 31L14 30.0462L21 17.6462L24.5 17.6462C24.5 17.6462 25 18.1231 25.5 18.6C26 19.0769 31 15.7385 31 15.2615C31 14.7846 26 11.4462 25.5 11.9231C25 12.4 24.5 12.8769 24.5 12.8769L21 12.8769L14 0.953846L9.5 -2.24539e-07L10 5.72308L16 12.4Z" fill="#D9D9D9"/>
</svg>
