<svg width="49" height="49" viewBox="0 0 49 49" fill="none" xmlns="http://www.w3.org/2000/svg">
<path fill-rule="evenodd" clip-rule="evenodd" d="M0.727922 0.0207964L1.08148 11.6881L23.3553 32.5477L27.2444 28.6586L4.97056 4.26344L29.3657 26.5373L33.2548 22.6482L12.3952 0.37435L0.727922 0.0207964ZM38.5581 18.7591C39.925 17.3923 42.1411 17.3923 43.5079 18.7591C44.8747 20.126 44.8747 22.342 43.5079 23.7089L36.7904 30.4264L47.0434 40.6794C48.8008 42.4368 48.8008 45.286 47.0434 47.0434C45.286 48.8008 42.4368 48.8008 40.6795 47.0434L30.4264 36.7903L23.7089 43.5079C22.3421 44.8747 20.126 44.8747 18.7591 43.5079C17.3923 42.141 17.3923 39.9249 18.7591 38.5581L28.6586 28.6586L38.5581 18.7591Z" fill="white"/>
</svg>
