<svg width="46" height="35" viewBox="0 0 46 35" fill="none" xmlns="http://www.w3.org/2000/svg">
<path d="M16.9234 24.3333L15.281 17.6667L10.354 16L6.74088 18.3333L5.42701 24.3333L7.72628 30.6667H16.9234L39.9161 0L41.2299 6.33333C40.0255 8.88889 36.6971 14.5333 33.0182 16.6667L45.5 10V16L38.6022 18.3333H45.5L44.1861 21.3333C44.7336 23.1111 45.2372 27.2667 42.8723 29.6667C42.8723 30 37.6168 35 35.3175 35C34.9891 35 30.3905 32.3333 30.062 28.3333C29.7993 28.0667 33.0182 29.7778 34.6606 30.6667L39.9161 27.6667L36.9599 23L28.0912 24.3333L17.9088 35H5.42701L0.499999 23L2.79927 14.6667L7.72628 10L15.281 11.6667L19.5511 16.6667C19.2226 18.8889 18.2372 23.5333 16.9234 24.3333Z" fill="#D9D9D9"/>
</svg>
