<svg width="45" height="35" viewBox="0 0 45 35" fill="none" xmlns="http://www.w3.org/2000/svg">
<path d="M28.5766 24.3333L30.219 17.6667L35.146 16L38.7591 18.3333L40.073 24.3333L37.7737 30.6667H28.5766L5.58394 0L4.27007 6.33333C5.47445 8.88889 8.80292 14.5333 12.4818 16.6667L0 10V16L6.89781 18.3333H0L1.31387 21.3333C0.766423 23.1111 0.262774 27.2667 2.62774 29.6667C2.62774 30 7.88321 35 10.1825 35C10.5109 35 15.1095 32.3333 15.438 28.3333C15.7007 28.0667 12.4818 29.7778 10.8394 30.6667L5.58394 27.6667L8.54015 23L17.4088 24.3333L27.5912 35H40.073L45 23L42.7007 14.6667L37.7737 10L30.219 11.6667L25.9489 16.6667C26.2774 18.8889 27.2628 23.5333 28.5766 24.3333Z" fill="#D9D9D9"/>
</svg>
